<svg width="110" height="24" viewBox="0 0 110 24" fill="none" xmlns="http://www.w3.org/2000/svg">
<g clip-path="url(#clip0_163_5294)">
<path d="M79.5346 4.90856C81.5756 4.86229 83.6666 4.89881 85.7103 4.89898C87.3909 4.89912 89.4502 4.76881 91.0733 5.11431C94.0747 5.75316 95.1956 8.98192 94.5081 11.7517C94.1472 13.2083 93.4221 14.0547 92.1642 14.8181C93.4645 16.1818 95.0775 17.8657 96.417 19.1601C95.187 19.2107 93.4097 19.2053 92.1771 19.17C91.0604 17.9468 89.9287 16.6154 88.7928 15.4251C88.1617 15.4182 83.8089 15.4839 83.5946 15.3513L83.5806 15.1274C83.579 14.2953 83.5817 13.4632 83.5898 12.6311C85.0201 12.5892 86.5079 12.6509 87.942 12.6272C88.6236 12.6159 89.6693 12.6768 90.3096 12.5279C90.6195 12.4571 90.9036 12.2993 91.1286 12.0723C92.1535 11.0528 91.9574 8.18588 90.1704 8.02581C89.2246 7.94105 88.3647 7.94915 87.4178 7.95051L82.4849 7.96127C82.4226 9.08751 82.4688 10.6621 82.4688 11.8154L82.4683 19.1768C81.4854 19.1873 80.5019 19.1847 79.519 19.1691L79.5147 10.2366C79.5142 8.53619 79.4712 6.58455 79.5346 4.90856Z" fill="black"/>
<path d="M61.6285 4.9088C64.7292 4.84689 67.8621 4.93857 70.9656 4.90332C72.5355 4.88549 74.1683 5.19449 75.3022 6.38679C77.1638 8.34529 77.087 12.1075 75.1577 13.9968C74.5851 14.5516 73.8853 14.9532 73.121 15.1653C71.9302 15.4997 70.3506 15.427 69.0905 15.4258C67.9578 15.4282 66.825 15.4232 65.6922 15.4106L65.6971 12.469C67.3739 12.4128 69.3215 12.4617 71.0198 12.4614C72.4609 12.4918 73.7064 11.8819 73.7107 10.2378C73.7172 7.55191 71.2825 7.96393 69.4316 7.95229C67.8331 7.94223 66.2138 7.98296 64.6153 7.96077C64.5664 11.6718 64.6239 15.4585 64.6067 19.1813C63.612 19.1875 62.6173 19.1855 61.622 19.1754C61.5946 14.4808 61.5726 9.59685 61.6285 4.9088Z" fill="black"/>
<path d="M54.6044 4.91355C56.0761 4.87173 57.7578 4.89656 59.2381 4.91414C56.6933 7.02883 53.8009 8.92328 51.2086 10.9964C50.8551 11.2792 50.4075 11.6216 50.036 11.8653C50.6686 12.4059 51.4818 12.9969 52.151 13.5082L55.7184 16.2396L58.2074 18.1506C58.5431 18.4089 59.2295 18.9646 59.562 19.1639C58.3733 19.1851 56.038 19.2536 54.895 19.168C52.8296 17.5711 50.8032 15.911 48.7497 14.297C48.1121 13.7959 46.9113 13.0125 46.6956 12.2433C46.6495 11.9231 46.6583 11.8338 46.694 11.5161C46.7681 11.2809 46.8773 10.9649 47.0618 10.8056C48.0676 9.93735 49.2194 9.07144 50.2674 8.25712L53.0439 6.10301C53.503 5.74737 54.1339 5.22896 54.6044 4.91355Z" fill="black"/>
<path d="M43.6201 4.90972C44.5844 4.90477 45.6153 4.88177 46.5738 4.92052C46.5323 5.86734 46.5604 6.96509 46.5613 7.92973L46.5636 13.3146L46.5602 17.0349C46.5598 17.5217 46.5339 18.5417 46.58 19.0063L46.5538 19.1103C46.3935 19.2519 44.0414 19.1785 43.6172 19.1734L43.6201 4.90972Z" fill="black"/>
<path d="M46.5754 4.91797C46.7443 5.95439 46.4728 11.093 46.6954 11.5151C46.6597 11.8328 46.6509 11.9221 46.697 12.2423C46.4191 12.7664 46.8136 17.8934 46.5816 19.0037C46.5355 18.5392 46.5614 17.5192 46.5618 17.0323L46.5652 13.3121L46.5629 7.92718C46.562 6.96254 46.5339 5.86479 46.5754 4.91797Z" fill="black" fill-opacity="0.117647"/>
<path d="M0 12.6746C1.30832 11.9133 2.92399 10.8095 4.22374 9.97227L11.6753 5.18851L16.9565 1.79696C17.6707 1.34088 19.1 0.487498 19.7343 0.00390625L33.6821 8.95423C35.4227 10.0615 37.7648 11.6936 39.4889 12.6747C39.1173 12.996 38.2281 13.537 37.7732 13.8284L34.6942 15.7992L25.3345 9.79649C23.6267 8.70021 21.3957 7.35469 19.7567 6.20453L9.67758 12.6741L6.50015 14.7156C5.99548 15.0407 5.32203 15.5048 4.81122 15.7964C3.22836 14.844 1.57927 13.7093 0 12.7115V12.6746Z" fill="#29377D"/>
<path d="M6.24805 16.7192C6.84059 16.2707 7.62477 15.8015 8.26242 15.3966C9.34169 14.713 10.4176 14.0239 11.49 13.3293L16.8576 9.88226C17.7326 9.32105 18.8415 8.55061 19.7212 8.05078C20.4665 8.45193 21.4233 9.10133 22.1535 9.56985L26.6751 12.4901C30.9442 15.2282 35.2961 17.9611 39.5301 20.7437C38.1343 21.6441 36.0972 22.8708 34.7681 23.8149H34.6457L24.521 17.3228C23.0366 16.3747 21.2097 15.1 19.7165 14.2429C19.1427 14.6988 17.9077 15.4437 17.2617 15.8573L12.8661 18.6815C12.4556 18.9456 11.4004 19.5762 11.073 19.8355C9.98536 19.1189 8.89009 18.4143 7.78735 17.7218C7.40154 17.476 6.57692 16.9809 6.24805 16.7192Z" fill="#CB212A"/>
<path d="M110.002 4.90806V13.7331C109.895 14.0643 109.843 14.5135 109.766 14.8614C108.808 19.1702 104.719 19.1868 101.249 19.186L97.6859 19.175C97.6687 18.1806 97.6838 17.1312 97.6849 16.1327C99.0411 16.0967 100.46 16.1561 101.824 16.1333C102.795 16.1237 103.788 16.1719 104.744 15.964C107.499 15.3644 107.046 12.3291 107.045 10.1028L107.049 4.90831C108.033 4.90044 109.018 4.90035 110.002 4.90806Z" fill="black"/>
<path d="M0 20.7159C1.5044 19.8268 3.04585 18.6893 4.5603 17.8125C6.14765 18.7867 7.80753 19.8772 9.37148 20.8961C8.3701 21.556 7.36307 22.2072 6.35057 22.8495C5.93388 23.1166 5.24343 23.53 4.86255 23.8149H4.73779C4.07951 23.3261 3.0172 22.6899 2.31074 22.2344C1.66187 21.8161 0.628998 21.1055 0 20.7778V20.7159Z" fill="#29377D"/>
</g>
<defs>
<clipPath id="clip0_163_5294">
<rect width="110" height="23.8144" fill="white"/>
</clipPath>
</defs>
</svg>
