<svg width="105" height="45" viewBox="0 0 105 45" fill="none" xmlns="http://www.w3.org/2000/svg">
<g clip-path="url(#clip0_1_702)">
<path d="M75.9198 15.511C77.868 15.4669 79.8639 15.5017 81.8147 15.5019C83.4189 15.502 85.3846 15.3776 86.934 15.7074C89.7989 16.3173 90.8689 19.3992 90.2127 22.0432C89.8681 23.4335 89.176 24.2414 87.9753 24.9701C89.2165 26.2719 90.7561 27.8792 92.0348 29.1148C90.8607 29.163 89.1642 29.158 87.9876 29.1242C86.9217 27.9566 85.8414 26.6857 84.7571 25.5495C84.1547 25.543 79.9998 25.6057 79.7952 25.4791L79.7819 25.2654C79.7803 24.4711 79.7829 23.6768 79.7906 22.8825C81.1559 22.8425 82.5761 22.9015 83.945 22.8788C84.5956 22.868 85.5938 22.9262 86.2049 22.784C86.5008 22.7165 86.772 22.5658 86.9868 22.3492C87.965 21.376 87.7779 18.6394 86.0721 18.4866C85.1693 18.4057 84.3485 18.4134 83.4446 18.4147L78.736 18.425C78.6765 19.5 78.7206 21.003 78.7206 22.1039L78.7201 29.1308C77.7819 29.1408 76.8431 29.1383 75.9049 29.1233L75.9008 20.5969C75.9003 18.9738 75.8593 17.1108 75.9198 15.511Z" fill="white"/>
<path d="M58.8281 15.5094C61.7878 15.4503 64.7784 15.5378 67.7407 15.5041C69.2394 15.4871 70.7979 15.7821 71.8802 16.9202C73.6572 18.7896 73.5839 22.3809 71.7423 24.1843C71.1958 24.7138 70.5278 25.0972 69.7982 25.2997C68.6615 25.6189 67.1537 25.5495 65.9509 25.5483C64.8697 25.5506 63.7884 25.5458 62.7071 25.5338L62.7117 22.7259C64.3124 22.6723 66.1714 22.7189 67.7925 22.7187C69.1681 22.7477 70.357 22.1655 70.3611 20.5962C70.3673 18.0323 68.0432 18.4256 66.2765 18.4145C64.7507 18.4049 63.2049 18.4438 61.6792 18.4226C61.6325 21.965 61.6874 25.5795 61.6709 29.1331C60.7214 29.139 59.7719 29.1371 58.8219 29.1274C58.7958 24.6462 58.7747 19.9843 58.8281 15.5094Z" fill="white"/>
<path d="M52.1244 15.5155C53.5292 15.4756 55.1344 15.4993 56.5474 15.5161C54.1183 17.5347 51.3574 19.343 48.8829 21.3219C48.5455 21.5918 48.1182 21.9187 47.7636 22.1513C48.3675 22.6674 49.1437 23.2315 49.7825 23.7195L53.1877 26.3268L55.5635 28.1509C55.884 28.3975 56.5392 28.9279 56.8566 29.1182C55.722 29.1384 53.4928 29.2037 52.4018 29.1221C50.4302 27.5977 48.4959 26.0131 46.5357 24.4724C45.9271 23.9941 44.7809 23.2464 44.575 22.5121C44.531 22.2064 44.5394 22.1212 44.5735 21.8179C44.6443 21.5935 44.7484 21.2918 44.9246 21.1398C45.8846 20.311 46.9841 19.4844 47.9845 18.7071L50.6348 16.6509C51.073 16.3115 51.6753 15.8166 52.1244 15.5155Z" fill="white"/>
<path d="M41.6376 15.5103C42.558 15.5056 43.542 15.4836 44.457 15.5206C44.4174 16.4244 44.4442 17.4722 44.4451 18.393L44.4473 23.5331L44.444 27.0843C44.4437 27.549 44.4189 28.5227 44.4629 28.9661L44.4379 29.0654C44.2849 29.2006 42.0397 29.1305 41.6348 29.1256L41.6376 15.5103Z" fill="white"/>
<path d="M44.4591 15.52C44.6204 16.5093 44.3612 21.4143 44.5737 21.8172C44.5396 22.1205 44.5312 22.2058 44.5752 22.5115C44.31 23.0117 44.6866 27.9057 44.4651 28.9655C44.421 28.5221 44.4458 27.5484 44.4461 27.0837L44.4494 23.5326L44.4472 18.3925C44.4463 17.4717 44.4195 16.4238 44.4591 15.52Z" fill="black" fill-opacity="0.117647"/>
<path d="M0 22.9228C1.24885 22.1961 2.79108 21.1426 4.03175 20.3434L11.1446 15.7771L16.1858 12.5397C16.8675 12.1043 18.2318 11.2897 18.8373 10.8281L32.1511 19.3716C33.8126 20.4286 36.0482 21.9865 37.6939 22.9229C37.3392 23.2297 36.4905 23.7461 36.0562 24.0242L33.1171 25.9055L24.1829 20.1756C22.5527 19.1291 20.4232 17.8448 18.8586 16.7469L9.23769 22.9224L6.20469 24.8711C5.72296 25.1814 5.08012 25.6245 4.59253 25.9027C3.08162 24.9936 1.50749 23.9106 0 22.9581V22.9228Z" fill="white"/>
<path d="M5.96289 26.7837C6.5285 26.3555 7.27703 25.9077 7.8857 25.5212C8.91591 24.8687 9.94289 24.2109 10.9665 23.5479L16.0902 20.2575C16.9254 19.7218 17.9839 18.9864 18.8236 18.5093C19.5351 18.8922 20.4484 19.5121 21.1454 19.9593L25.4614 22.7468C29.5365 25.3604 33.6906 27.9691 37.7322 30.6253C36.3998 31.4847 34.4553 32.6557 33.1865 33.5568H33.0697L23.4052 27.3598C21.9884 26.4549 20.2445 25.2381 18.8192 24.4199C18.2714 24.8551 17.0925 25.5662 16.476 25.961L12.2802 28.6568C11.8883 28.9089 10.8811 29.5108 10.5685 29.7583C9.53033 29.0743 8.48484 28.4017 7.43222 27.7407C7.06396 27.506 6.27681 27.0335 5.96289 26.7837Z" fill="white"/>
<path d="M105.001 15.5094V23.9333C104.898 24.2494 104.849 24.6781 104.775 25.0103C103.861 29.1232 99.9579 29.1391 96.6449 29.1383L93.2441 29.1278C93.2277 28.1786 93.2421 27.1769 93.2431 26.2238C94.5377 26.1894 95.8917 26.2461 97.1939 26.2243C98.1209 26.2152 99.0689 26.2612 99.981 26.0628C102.612 25.4904 102.179 22.5931 102.178 20.468L102.181 15.5096C103.121 15.5021 104.061 15.502 105.001 15.5094Z" fill="white"/>
<path d="M0 30.5985C1.43602 29.7499 2.9074 28.6641 4.35301 27.8271C5.86821 28.757 7.45264 29.798 8.94551 30.7706C7.98964 31.4005 7.02839 32.0221 6.06191 32.6352C5.66416 32.8902 5.0051 33.2848 4.64153 33.5567H4.52243C3.89408 33.0902 2.88006 32.4829 2.20571 32.0481C1.58633 31.6488 0.600407 30.9704 0 30.6577V30.5985Z" fill="white"/>
</g>
<defs>
<clipPath id="clip0_1_702">
<rect width="105" height="22.732" fill="white" transform="translate(0 10.8247)"/>
</clipPath>
</defs>
</svg>
